# xmcd
#
# Track frame offsets:
#	150
#	12010
#	23805
#	38045
#	50387
#	65960
#	83525
#	95387
#	108780
#	122227
#	135382
#	147747
#	160782
#	176282
#	192097
#	208960
#	221667
#	238505
#	249790
#	264490
#	278230
#	292742
#	305952
#	323575
#
# Disc length: 4494 seconds
#
# Revision: 0
# Processed by: cddbd v1.5.2PL0 Copyright (c) Steve Scherf et al.
# Submitted via: EasyCDDAExtractor 9.1.3.1
#
DISCID=50118c18
DTITLE=Various Artist - 25 SERTANEJAS DE OURO
DYEAR=1995
DGENRE=Country
TTITLE0=Tião Brasil e Parentinho - Mula preta
TTITLE1=Tião Brasil e Carriel - Viola cabocla
TTITLE2=Tião Brasil e Parentinho - Disco voador
TTITLE3=Trio Mineiro - Velha porteira
TTITLE4=Peão Brasil e Parentinho - Rolinha cabocla
TTITLE5=Morena e Moreninho - Catira no céu
TTITLE6=Trio Mineiro - Boiada carreira
TTITLE7=Trio Mineiro - Cavalo manco
TTITLE8=Peão Brasil e Parentinho - Raízes do amor
TTITLE9=Trio Mineiro - Tuas iniciais
TTITLE10=Tião Brasil e Parentinho - Arroz à carreteiro
TTITLE11=Peão Brasil e Parentinho - Oi  paixão
TTITLE12=Carreiro e Carreirinho - Grandes homens do passado
TTITLE13=Morena e Moreninho - a) Cabecinha no ombro - b) Minha mágoa
TTITLE14=Tião Brasil e Parentinho - Caboclo na cidade
TTITLE15=Trio Mineiro - Coisas da vida
TTITLE16=Carreiro e Carreirinho - Solidão cruel
TTITLE17=Morena e Moreninho - Nossa da rosa mística
TTITLE18=Tião Brasil e Parentinho - Relógio quebrado
TTITLE19=Carreiro e Carreirinho - Milagre dos santos reis
TTITLE20=Morena e Moreninho - Mãe do nosso pai primeiro
TTITLE21=Carreiro e Carreirinho - Crianças do Brasil
TTITLE22=Tião Brasil e Parentinho - Boi soberano
TTITLE23=Morena e Moreninho - Porteira de ouro fino
EXTD=
EXTT0=
EXTT1=
EXTT2=
EXTT3=
EXTT4=
EXTT5=
EXTT6=
EXTT7=
EXTT8=
EXTT9=
EXTT10=
EXTT11=
EXTT12=
EXTT13=
EXTT14=
EXTT15=
EXTT16=
EXTT17=
EXTT18=
EXTT19=
EXTT20=
EXTT21=
EXTT22=
EXTT23=
PLAYORDER=
